<svg class="section-content_logo" width="428" height="90" viewBox="0 0 191 40" xmlns="http://www.w3.org/2000/svg">
  <path
    d="M26.986 13.749a16.56 16.56 0 011.592-.862c.716-.351 1.33-.655 1.788-1.151 2.246-2.432 1.675-6.167 1.65-6.325l-.063-.386-.182.346c-.009.019-1.022 1.928-2.797 3.253a21.7 21.7 0 01-.74.512c-.535.36-1.202.807-2.004 1.436-2.64 2.07-2.67 5.496-2.67 5.64v.37l.233-.287c.003-.006.908-1.111 3.193-2.546z"
    fill="#00ffff"></path>
  <path
    d="M26.426 6.82c1.21-.758 2.07-1.35 2.627-1.95 1.75-1.895 1.283-4.4 1.26-4.505L30.244 0l-.172.329c-.006.012-.774 1.47-2.148 2.494-.147.11-.326.232-.535.373-.424.285-.958.645-1.578 1.13-2.043 1.601-2.068 4.255-2.068 4.367v.37l.233-.289c.004-.005.677-.839 2.451-1.953z"
    fill="#00ffff"></path>
</svg>